<svg width="290" height="73" viewBox="0 0 290 73" fill="none" xmlns="http://www.w3.org/2000/svg">
<path d="M16.2826 72.1746C13.3938 72.1746 11.0519 72.0604 9.14238 71.3015C7.11865 70.4936 2.53261 69.1554 1.41466 64.4469C1.31674 64.0226 1.51259 63.6636 1.82267 63.3943C2.13276 63.125 2.48365 62.9863 2.87534 62.9863H9.14238C9.49327 62.9863 9.79519 63.076 10.0482 63.2474C10.3011 63.4269 10.4317 63.7615 10.6683 64.1532C11.1987 65.0345 12.0556 65.6791 15.997 65.6791C17.3597 65.6791 18.494 65.4833 19.3916 65.0916C20.2892 64.6999 20.9665 64.0389 21.4072 63.1005C21.856 62.1621 22.0845 60.8972 22.0845 59.2978V55.3728C21.146 56.3928 19.971 57.2252 18.5429 57.8861C17.1149 58.5471 15.3768 58.8817 13.3041 58.8817C11.2314 58.8817 9.49327 58.5634 7.95099 57.9188C6.40871 57.2741 5.12756 56.3602 4.11569 55.1688C3.10383 53.9774 2.32045 52.5494 1.77371 50.8683C1.22698 49.1955 0.91689 47.3023 0.835288 45.1888C0.794487 44.1362 0.794487 43.0998 0.835288 42.088C0.90873 40.0561 1.22698 38.2037 1.77371 36.5309C2.32045 34.858 3.10383 33.3974 4.11569 32.1733C5.12756 30.9493 6.40871 29.9864 7.95099 29.3091C9.49327 28.6236 11.2722 28.2891 13.3041 28.2891C15.4502 28.2891 17.2863 28.6971 18.8041 29.5213C20.3219 30.3454 21.5704 31.3573 22.5496 32.565V30.3373C22.5496 29.9456 22.6883 29.6029 22.9576 29.3173C23.2351 29.0235 23.5615 28.8766 23.9532 28.8766H29.6898C30.0815 28.8766 30.4242 29.0235 30.7098 29.3173C30.9954 29.611 31.1504 29.9537 31.1504 30.3373L31.2076 58.49C31.2076 61.4195 30.6445 63.892 29.5102 65.9239C28.376 67.9558 26.7113 69.5063 24.508 70.5752C22.3048 71.6442 19.563 72.1828 16.2826 72.1828V72.1746ZM15.9888 52.0434C17.3923 52.0434 18.5348 51.717 19.4161 51.0805C20.2892 50.4359 20.942 49.6198 21.3745 48.6243C21.807 47.6287 22.0355 46.5842 22.0763 45.4908C22.1171 45.0583 22.1334 44.4463 22.1334 43.6466C22.1334 42.8469 22.1171 42.2349 22.0763 41.8024C22.0355 40.7089 21.7989 39.6644 21.3745 38.6688C20.942 37.6733 20.2892 36.8654 19.4161 36.2371C18.5348 35.6169 17.4005 35.2987 15.9888 35.2987C14.5036 35.2987 13.3367 35.6169 12.4799 36.2616C11.6231 36.9062 10.9947 37.7549 10.6112 38.8076C10.2195 39.8602 9.99104 41.0108 9.90944 42.2593C9.86863 43.1978 9.86863 44.1117 9.90944 45.0093C9.99104 46.2986 10.2195 47.4655 10.6112 48.5182C11.0029 49.5709 11.6231 50.4195 12.4799 51.0642C13.3367 51.7089 14.5118 52.0271 15.9888 52.0271V52.0434Z" fill="url(#paint0_linear_3632_528)"/>
<path d="M38.5276 59.2985C38.1359 59.2985 37.8095 59.1598 37.532 58.8905C37.2546 58.6212 37.124 58.2704 37.124 57.8379V30.3298C37.124 29.9381 37.2627 29.5954 37.532 29.3098C37.8095 29.016 38.1359 28.8691 38.5276 28.8691H44.2642C44.6559 28.8691 44.9986 29.016 45.2842 29.3098C45.5698 29.6036 45.7249 29.9463 45.7249 30.3298V32.6718C46.6959 31.4641 47.8955 30.5257 49.3235 29.8647C50.7516 29.2037 52.3999 28.8691 54.2686 28.8691H56.782C57.1737 28.8691 57.5001 29.0079 57.7775 29.2772C58.055 29.5464 58.1855 29.8973 58.1855 30.3298V35.3647C58.1855 35.7972 58.0468 36.148 57.7775 36.4173C57.5001 36.6948 57.1737 36.8253 56.782 36.8253H51.6329C49.9192 36.8253 48.5728 37.3068 47.5936 38.2615C46.6225 39.2163 46.1329 40.5709 46.1329 42.3253V57.8379C46.1329 58.2704 45.9942 58.6212 45.7249 58.8905C45.4556 59.1598 45.1047 59.2985 44.6722 59.2985H38.5276Z" fill="url(#paint1_linear_3632_528)"/>
<path d="M74.3425 59.8857C69.8544 59.8857 66.2965 58.6372 63.6608 56.1402C61.0251 53.6432 59.6297 50.0119 59.4746 45.2545V42.7411C59.6297 39.7382 60.3151 37.1514 61.5228 34.9889C62.7305 32.8183 64.4279 31.1618 66.6148 30.0112C68.8017 28.8606 71.3559 28.2812 74.2772 28.2812C77.5576 28.2812 80.2913 28.9504 82.5027 30.2968C84.706 31.6433 86.3625 33.4793 87.4804 35.7968C88.5984 38.1143 89.1533 40.7827 89.1533 43.7856V45.1321C89.1533 45.5238 89.0064 45.8502 88.7126 46.1276C88.4189 46.4051 88.0761 46.5356 87.6926 46.5356H68.5569V47.0008C68.5977 48.2493 68.8425 49.3917 69.2913 50.428C69.7402 51.4644 70.3848 52.2886 71.2253 52.9169C72.0658 53.5452 73.0695 53.8553 74.2364 53.8553C75.2075 53.8553 76.0072 53.7166 76.6355 53.4473C77.2557 53.178 77.778 52.8435 78.186 52.4518C78.594 52.0601 78.8959 51.7337 79.0917 51.4562C79.4426 51.0645 79.7282 50.8197 79.9404 50.7218C80.1526 50.6239 80.4953 50.5749 80.9604 50.5749H87.0479C87.4396 50.5749 87.7579 50.681 88.0109 50.8932C88.2638 51.1135 88.3699 51.4154 88.3373 51.799C88.2965 52.4273 87.9782 53.1944 87.3744 54.1083C86.7705 55.0222 85.881 55.9199 84.7141 56.8012C83.5391 57.6743 82.0865 58.4087 80.3566 58.9963C78.6266 59.5838 76.6192 59.8776 74.3588 59.8776L74.3425 59.8857ZM68.5488 41.2152H80.022V41.1009C80.022 39.6974 79.7935 38.4733 79.3447 37.4452C78.8959 36.417 78.2431 35.601 77.3863 35.0134C76.5294 34.4259 75.4931 34.1321 74.2854 34.1321C73.0777 34.1321 72.0413 34.4259 71.1845 35.0134C70.3277 35.601 69.6749 36.4088 69.2261 37.4452C68.7772 38.4815 68.5488 39.6974 68.5488 41.1009V41.2152Z" fill="url(#paint2_linear_3632_528)"/>
<path d="M107.114 59.8857C102.626 59.8857 99.068 58.6372 96.4323 56.1402C93.7965 53.6432 92.4011 50.0119 92.2461 45.2545V42.7411C92.4011 39.7382 93.0866 37.1514 94.2943 34.9889C95.502 32.8183 97.1993 31.1618 99.3863 30.0112C101.573 28.8606 104.127 28.2812 107.049 28.2812C110.329 28.2812 113.063 28.9504 115.274 30.2968C117.477 31.6433 119.134 33.4793 120.252 35.7968C121.37 38.1143 121.925 40.7827 121.925 43.7856V45.1321C121.925 45.5238 121.778 45.8502 121.484 46.1276C121.19 46.4051 120.848 46.5356 120.464 46.5356H101.328V47.0008C101.369 48.2493 101.614 49.3917 102.063 50.428C102.512 51.4644 103.156 52.2886 103.997 52.9169C104.837 53.5452 105.841 53.8553 107.008 53.8553C107.979 53.8553 108.779 53.7166 109.407 53.4473C110.027 53.178 110.549 52.8435 110.957 52.4518C111.365 52.0601 111.667 51.7337 111.863 51.4562C112.214 51.0645 112.5 50.8197 112.712 50.7218C112.924 50.6239 113.267 50.5749 113.732 50.5749H119.819C120.211 50.5749 120.529 50.681 120.782 50.8932C121.035 51.1135 121.141 51.4154 121.109 51.799C121.068 52.4273 120.75 53.1944 120.146 54.1083C119.542 55.0222 118.653 55.9199 117.486 56.8012C116.311 57.6743 114.858 58.4087 113.128 58.9963C111.398 59.5838 109.391 59.8776 107.13 59.8776L107.114 59.8857ZM101.32 41.2152H112.793V41.1009C112.793 39.6974 112.565 38.4733 112.116 37.4452C111.667 36.417 111.015 35.601 110.158 35.0134C109.301 34.4259 108.265 34.1321 107.057 34.1321C105.849 34.1321 104.813 34.4259 103.956 35.0134C103.099 35.601 102.446 36.4088 101.998 37.4452C101.549 38.4815 101.32 39.6974 101.32 41.1009V41.2152Z" fill="url(#paint3_linear_3632_528)"/>
<path d="M127.718 59.2982C127.326 59.2982 127 59.1595 126.722 58.8902C126.445 58.6209 126.314 58.27 126.314 57.8375V30.3295C126.314 29.897 126.453 29.5461 126.722 29.2768C126.992 29.0075 127.326 28.8688 127.718 28.8688H133.455C133.887 28.8688 134.23 29.0075 134.507 29.2768C134.785 29.5461 134.915 29.897 134.915 30.3295V32.6143C135.927 31.3658 137.241 30.3295 138.84 29.5134C140.44 28.6974 142.39 28.2812 144.691 28.2812C146.992 28.2812 149.016 28.7953 150.746 29.8317C152.476 30.868 153.847 32.3695 154.843 34.3361C155.838 36.3109 156.336 38.6937 156.336 41.5089V57.8375C156.336 58.27 156.189 58.6209 155.895 58.8902C155.601 59.1676 155.259 59.2982 154.875 59.2982H148.673C148.241 59.2982 147.89 59.1595 147.621 58.8902C147.343 58.6209 147.213 58.27 147.213 57.8375V41.8598C147.213 39.7953 146.715 38.1796 145.719 37.029C144.724 35.8784 143.271 35.299 141.362 35.299C139.452 35.299 138.065 35.8784 136.972 37.029C135.878 38.1796 135.331 39.7871 135.331 41.8598V57.8375C135.331 58.27 135.193 58.6209 134.923 58.8902C134.654 59.1595 134.32 59.2982 133.928 59.2982H127.726H127.718Z" fill="url(#paint4_linear_3632_528)"/>
<path d="M180.914 59.8857C178.067 59.8857 175.561 59.3635 173.391 58.3026C171.228 57.25 169.515 55.7159 168.274 53.7084C167.026 51.701 166.34 49.2938 166.226 46.4785C166.185 45.8583 166.169 45.0668 166.169 44.112C166.169 43.1573 166.185 42.3658 166.226 41.7374C166.34 38.8895 167.018 36.4659 168.242 34.4504C169.474 32.443 171.179 30.9088 173.358 29.8562C175.545 28.8035 178.058 28.2812 180.906 28.2812C183.518 28.2812 185.745 28.6403 187.581 29.3584C189.417 30.0847 190.919 30.9904 192.086 32.0839C193.261 33.1774 194.126 34.3198 194.689 35.5112C195.252 36.7026 195.554 37.7471 195.595 38.6447C195.635 39.0364 195.505 39.3791 195.211 39.6647C194.917 39.9503 194.575 40.1054 194.191 40.1054H187.924C187.532 40.1054 187.23 39.9993 187.018 39.7871C186.798 39.575 186.594 39.273 186.398 38.8814C185.851 37.5186 185.15 36.5394 184.293 35.9518C183.436 35.3643 182.359 35.0787 181.069 35.0787C179.315 35.0787 177.928 35.6418 176.916 36.776C175.904 37.9103 175.357 39.6647 175.276 42.0475C175.235 43.5653 175.235 44.9526 175.276 46.2011C175.39 48.6165 175.953 50.3791 176.94 51.4726C177.936 52.566 179.315 53.1128 181.069 53.1128C182.432 53.1128 183.526 52.819 184.35 52.2315C185.166 51.6521 185.851 50.6729 186.398 49.3101C186.553 48.9184 186.749 48.6165 186.986 48.4043C187.222 48.1921 187.532 48.0779 187.924 48.0779H194.191C194.583 48.0779 194.925 48.2248 195.211 48.5186C195.497 48.8123 195.627 49.1551 195.595 49.5386C195.554 50.1996 195.366 50.9829 195.04 51.8806C194.713 52.7782 194.183 53.6921 193.465 54.6305C192.747 55.569 191.816 56.434 190.682 57.2337C189.548 58.0334 188.177 58.678 186.553 59.1676C184.937 59.6572 183.052 59.902 180.906 59.902L180.914 59.8857Z" fill="#82785D"/>
<path d="M213.8 59.8854C210.561 59.8854 207.852 59.3468 205.665 58.2778C203.478 57.2007 201.813 55.6747 200.663 53.6836C199.512 51.6925 198.875 49.375 198.761 46.7148C198.72 45.9396 198.704 45.0501 198.704 44.0546C198.704 43.059 198.72 42.1941 198.761 41.4515C198.875 38.7586 199.545 36.4329 200.752 34.4582C201.96 32.4916 203.657 30.9656 205.844 29.8966C208.031 28.8195 210.683 28.2891 213.8 28.2891C216.918 28.2891 219.513 28.8276 221.7 29.8966C223.886 30.9656 225.584 32.4916 226.792 34.4582C227.999 36.4329 228.668 38.7586 228.783 41.4515C228.856 42.1941 228.897 43.059 228.897 44.0546C228.897 45.0501 228.856 45.9396 228.783 46.7148C228.668 49.3669 228.032 51.6925 226.881 53.6836C225.731 55.6747 224.058 57.2007 221.879 58.2778C219.692 59.3468 216.999 59.8854 213.8 59.8854ZM213.8 53.447C215.71 53.447 217.154 52.8513 218.134 51.6599C219.105 50.4685 219.635 48.7222 219.717 46.421C219.757 45.8417 219.774 45.0583 219.774 44.0791C219.774 43.0998 219.757 42.3246 219.717 41.7371C219.635 39.4767 219.113 37.7386 218.134 36.5309C217.154 35.3232 215.718 34.7193 213.8 34.7193C211.883 34.7193 210.438 35.3232 209.443 36.5309C208.447 37.7386 207.909 39.4767 207.835 41.7371C207.795 42.3246 207.778 43.108 207.778 44.0791C207.778 45.0501 207.795 45.8335 207.835 46.421C207.909 48.7222 208.447 50.4685 209.443 51.6599C210.438 52.8513 211.891 53.447 213.8 53.447Z" fill="#82785D"/>
<path d="M234.992 59.2982C234.601 59.2982 234.274 59.1595 233.997 58.8902C233.719 58.6209 233.589 58.27 233.589 57.8375V30.3295C233.589 29.897 233.728 29.5461 233.997 29.2768C234.266 29.0075 234.601 28.8688 234.992 28.8688H240.729C241.162 28.8688 241.504 29.0075 241.782 29.2768C242.059 29.5461 242.19 29.897 242.19 30.3295V32.6143C243.202 31.3658 244.515 30.3295 246.115 29.5134C247.714 28.6974 249.664 28.2812 251.966 28.2812C254.267 28.2812 256.291 28.7953 258.02 29.8317C259.75 30.868 261.121 32.3695 262.117 34.3361C263.112 36.3109 263.61 38.6937 263.61 41.5089V57.8375C263.61 58.27 263.463 58.6209 263.17 58.8902C262.876 59.1676 262.533 59.2982 262.15 59.2982H255.948C255.515 59.2982 255.164 59.1595 254.895 58.8902C254.618 58.6209 254.487 58.27 254.487 57.8375V41.8598C254.487 39.7953 253.989 38.1796 252.994 37.029C251.998 35.8784 250.546 35.299 248.636 35.299C246.727 35.299 245.34 35.8784 244.246 37.029C243.153 38.1796 242.606 39.7871 242.606 41.8598V57.8375C242.606 58.27 242.467 58.6209 242.198 58.8902C241.929 59.1595 241.594 59.2982 241.202 59.2982H235.001H234.992Z" fill="#82785D"/>
<path d="M273.615 59.2961C273.182 59.2961 272.831 59.1574 272.562 58.8881C272.285 58.6188 272.154 58.2679 272.154 57.8354V35.7702H267.593C267.16 35.7702 266.809 35.6315 266.54 35.3622C266.262 35.0929 266.132 34.742 266.132 34.3095V30.3274C266.132 29.8949 266.271 29.544 266.54 29.2747C266.809 28.9973 267.16 28.8667 267.593 28.8667H272.154V26.7614C272.154 24.2643 272.619 22.2161 273.558 20.6167C274.496 19.0173 275.859 17.8504 277.654 17.1078C279.449 16.3653 281.653 15.998 284.264 15.998H288.54C288.972 15.998 289.323 16.1368 289.592 16.4061C289.862 16.6835 290 17.0262 290 17.4587V21.4409C290 21.8734 289.862 22.2243 289.592 22.4936C289.315 22.771 288.964 22.9016 288.54 22.9016H284.623C283.179 22.9016 282.175 23.2525 281.612 23.9542C281.049 24.656 280.763 25.6924 280.763 27.0551V28.8667H287.96C288.393 28.8667 288.736 29.0054 289.013 29.2747C289.291 29.544 289.421 29.8949 289.421 30.3274V34.3095C289.421 34.742 289.282 35.0929 289.013 35.3622C288.744 35.6315 288.393 35.7702 287.96 35.7702H280.763V57.8354C280.763 58.2679 280.624 58.6188 280.355 58.8881C280.086 59.1574 279.751 59.2961 279.36 59.2961H273.623H273.615Z" fill="#82785D"/>
<path d="M162.644 23.6609C162.644 23.6609 160.759 12.4814 167.777 6.99772C174.795 1.5059 186.896 0.771484 186.896 0.771484L162.644 23.6609Z" fill="url(#paint5_linear_3632_528)"/>
<path d="M163.452 25.3672C163.452 25.3672 173.408 27.293 178.989 20.2997C184.571 13.2982 186.586 1.30273 186.586 1.30273L163.452 25.3672Z" fill="url(#paint6_linear_3632_528)"/>
<path d="M157.659 24.2737C157.659 24.2737 150.086 23.0986 148.062 17.4273C146.039 11.7478 148.144 3.82422 148.144 3.82422L157.659 24.2737Z" fill="url(#paint7_linear_3632_528)"/>
<path d="M158.922 24.1175C158.922 24.1175 162.284 18.1361 158.987 13.0604C155.691 7.98478 148.42 4.125 148.42 4.125L158.922 24.1093V24.1175Z" fill="url(#paint8_linear_3632_528)"/>
<defs>
<linearGradient id="paint0_linear_3632_528" x1="22.2966" y1="91.0982" x2="13.3122" y2="25.686" gradientUnits="userSpaceOnUse">
<stop stop-color="#7ED844"/>
<stop offset="1" stop-color="#15A30D"/>
</linearGradient>
<linearGradient id="paint1_linear_3632_528" x1="53.526" y1="86.8066" x2="44.5417" y2="21.3944" gradientUnits="userSpaceOnUse">
<stop stop-color="#7ED844"/>
<stop offset="1" stop-color="#15A30D"/>
</linearGradient>
<linearGradient id="paint2_linear_3632_528" x1="79.6711" y1="83.2157" x2="70.6786" y2="17.8035" gradientUnits="userSpaceOnUse">
<stop stop-color="#7ED844"/>
<stop offset="1" stop-color="#15A30D"/>
</linearGradient>
<linearGradient id="paint3_linear_3632_528" x1="111.839" y1="78.7929" x2="102.846" y2="13.3807" gradientUnits="userSpaceOnUse">
<stop stop-color="#7ED844"/>
<stop offset="1" stop-color="#15A30D"/>
</linearGradient>
<linearGradient id="paint4_linear_3632_528" x1="144.797" y1="74.264" x2="135.805" y2="8.8518" gradientUnits="userSpaceOnUse">
<stop stop-color="#7ED844"/>
<stop offset="1" stop-color="#15A30D"/>
</linearGradient>
<linearGradient id="paint5_linear_3632_528" x1="174.623" y1="1.70175" x2="174.721" y2="28.9568" gradientUnits="userSpaceOnUse">
<stop stop-color="#7ED844"/>
<stop offset="1" stop-color="#15A30D"/>
</linearGradient>
<linearGradient id="paint6_linear_3632_528" x1="174.983" y1="1.70258" x2="175.08" y2="28.9495" gradientUnits="userSpaceOnUse">
<stop stop-color="#7ED844"/>
<stop offset="1" stop-color="#15A30D"/>
</linearGradient>
<linearGradient id="paint7_linear_3632_528" x1="152.363" y1="1.77601" x2="152.453" y2="29.0311" gradientUnits="userSpaceOnUse">
<stop stop-color="#7ED844"/>
<stop offset="1" stop-color="#15A30D"/>
</linearGradient>
<linearGradient id="paint8_linear_3632_528" x1="154.393" y1="1.7667" x2="154.483" y2="29.0218" gradientUnits="userSpaceOnUse">
<stop stop-color="#7ED844"/>
<stop offset="1" stop-color="#15A30D"/>
</linearGradient>
</defs>
</svg>
